<?xml version="1.0" encoding="UTF-8" standalone="no"?>
<!-- Created with Inkscape (http://www.inkscape.org/) -->

<svg
   version="1.1"
   id="svg1"
   width="1500"
   height="1500"
   viewBox="0 0 1500 1499.9999"
   sodipodi:docname="AeroVia-logo new colors.svg"
   xml:space="preserve"
   inkscape:version="1.4 (86a8ad7, 2024-10-11)"
   inkscape:export-filename="AeroVia-logo500px.png"
   inkscape:export-xdpi="40.951363"
   inkscape:export-ydpi="40.951363"
   xmlns:inkscape="http://www.inkscape.org/namespaces/inkscape"
   xmlns:sodipodi="http://sodipodi.sourceforge.net/DTD/sodipodi-0.dtd"
   xmlns:xlink="http://www.w3.org/1999/xlink"
   xmlns="http://www.w3.org/2000/svg"
   xmlns:svg="http://www.w3.org/2000/svg"><defs
     id="defs1"><linearGradient
       id="linearGradient8"
       inkscape:collect="always"><stop
         style="stop-color:#a285d1;stop-opacity:1;"
         offset="0"
         id="stop8" /><stop
         style="stop-color:#9333ea;stop-opacity:1;"
         offset="0.77877694"
         id="stop9" /></linearGradient><linearGradient
       id="linearGradient6"
       inkscape:collect="always"><stop
         style="stop-color:#36b4fe;stop-opacity:1;"
         offset="0"
         id="stop7" /><stop
         style="stop-color:#2563eb;stop-opacity:1;"
         offset="1"
         id="stop6" /></linearGradient><linearGradient
       id="linearGradient2"
       inkscape:collect="always"><stop
         style="stop-color:#2563eb;stop-opacity:1;"
         offset="0.00179856"
         id="stop2" /><stop
         style="stop-color:#4c8aed;stop-opacity:1;"
         offset="1"
         id="stop3" /></linearGradient><linearGradient
       inkscape:collect="always"
       xlink:href="#linearGradient6"
       id="linearGradient5"
       gradientUnits="userSpaceOnUse"
       gradientTransform="translate(-16,4)"
       x1="616.06647"
       y1="538.21271"
       x2="396.8432"
       y2="1384.8086" /><linearGradient
       inkscape:collect="always"
       xlink:href="#linearGradient8"
       id="linearGradient10"
       gradientUnits="userSpaceOnUse"
       gradientTransform="translate(-14,4)"
       x1="690.94342"
       y1="536.21271"
       x2="879.35553"
       y2="1490.3297" /><linearGradient
       inkscape:collect="always"
       xlink:href="#linearGradient2"
       id="linearGradient11"
       gradientUnits="userSpaceOnUse"
       gradientTransform="matrix(0.97011249,0,0,0.97011249,5.5107551,17.658525)"
       x1="652.80469"
       y1="139.31039"
       x2="652.80469"
       y2="448.25964" /></defs><sodipodi:namedview
     id="namedview1"
     pagecolor="#ffffff"
     bordercolor="#000000"
     borderopacity="0.25"
     inkscape:showpageshadow="2"
     inkscape:pageopacity="0.0"
     inkscape:pagecheckerboard="0"
     inkscape:deskcolor="#d1d1d1"
     showgrid="false"
     inkscape:zoom="0.5113162"
     inkscape:cx="567.16372"
     inkscape:cy="793.05134"
     inkscape:window-width="2560"
     inkscape:window-height="1406"
     inkscape:window-x="-12"
     inkscape:window-y="-12"
     inkscape:window-maximized="1"
     inkscape:current-layer="use11"><inkscape:page
       x="0"
       y="0"
       width="1500"
       height="1499.9999"
       id="page2"
       margin="0"
       bleed="0" /></sodipodi:namedview><circle
     style="display:none;opacity:1;fill:none;stroke:#000000;stroke-width:2.74746;stroke-dasharray:none;stroke-dashoffset:10.2047;stroke-opacity:1"
     id="path1"
     cx="750"
     cy="750"
     r="748.62628" /><g
     id="g13"
     inkscape:label="Guides"
     style="display:none"
     transform="matrix(1.0061642,0,0,1.0049121,-2313.0782,-468.39406)"><path
       sodipodi:type="star"
       style="fill:#296ff0;fill-opacity:0.197889;stroke-width:1.88976;stroke-dashoffset:33.6377"
       id="path10"
       inkscape:flatsided="false"
       sodipodi:sides="3"
       sodipodi:cx="1906.1331"
       sodipodi:cy="-76.984375"
       sodipodi:r1="813.89343"
       sodipodi:r2="406.94672"
       sodipodi:arg1="0.52359878"
       sodipodi:arg2="1.5707963"
       inkscape:rounded="0"
       inkscape:randomized="0"
       d="m 2610.9854,329.96234 -704.8523,0 -704.8524,0 352.4262,-610.42006 352.4262,-610.42009 352.4261,610.42007 z"
       inkscape:transform-center-y="-216.30403"
       transform="matrix(0.92009189,0,0,1.0630583,926.4276,1266.5307)"
       inkscape:transform-center-x="5.9409719e-05"
       sodipodi:insensitive="true"
       inkscape:label="Triangle guide" /><rect
       style="fill:#000000;fill-opacity:0.206186;stroke:none;stroke-width:10.5135;stroke-dasharray:none;stroke-dashoffset:33.6377;stroke-opacity:1"
       id="rect12"
       width="1297.8242"
       height="1297.8242"
       x="2031.7131"
       y="319.47589"
       inkscape:label="Square guide" /><ellipse
       style="opacity:0.26555;fill:#ff0067;fill-opacity:1;stroke:none;stroke-width:2.90401;stroke-dasharray:none;stroke-dashoffset:33.6377;stroke-opacity:1"
       id="circle25"
       cx="693.62982"
       cy="1425.5035"
       inkscape:label="Blue left"
       rx="67.509628"
       ry="67.59375" /><ellipse
       style="opacity:0.26555;fill:#ff0067;fill-opacity:1;stroke:none;stroke-width:5.65792;stroke-dasharray:none;stroke-dashoffset:33.6377;stroke-opacity:1"
       id="circle1"
       cx="487.79312"
       cy="893.47589"
       inkscape:label="Purple right"
       rx="131.52946"
       ry="131.69336" /><ellipse
       style="opacity:0.26555;fill:#ff0067;fill-opacity:1;stroke:none;stroke-width:2.90401;stroke-dasharray:none;stroke-dashoffset:33.6377;stroke-opacity:1"
       id="ellipse1"
       cx="1176.5157"
       cy="1518.2665"
       inkscape:label="Blue left"
       rx="67.509628"
       ry="67.59375" /><ellipse
       style="opacity:0.26555;fill:#ff0067;fill-opacity:1;stroke:none;stroke-width:5.65792;stroke-dasharray:none;stroke-dashoffset:33.6377;stroke-opacity:1"
       id="ellipse2"
       cx="1439.0162"
       cy="1042.9857"
       inkscape:label="Purple right"
       rx="131.52946"
       ry="130.82259" /></g><g
     id="g12"
     transform="matrix(1.0061794,0,0,1.0108518,-1880.557,412.40523)"
     inkscape:label="Actual logo"
     inkscape:export-filename="Aerovialogo.svg"
     inkscape:export-xdpi="96"
     inkscape:export-ydpi="96"><g
       id="use11"
       transform="rotate(54.392107,2130.9046,2498.2361)"
       inkscape:label="Shapes of logo"><path
         id="path2"
         style="fill:url(#linearGradient5);fill-opacity:1;stroke-width:1.14499;stroke-dashoffset:33.6377"
         d="m 64.025725,847.9415 264.185535,504.9857 c 29.25091,55.9126 102.59371,48.6112 124.63772,-5.4122 20.69548,-50.7186 63.66281,-190.5181 90.53486,-344.1792 38.17203,-218.2771 58.1161,-458.4176 58.1161,-458.4176 -18.79828,106.35957 -63.93945,171.7746 -172.93771,152.70169 L 207.4196,658.92355 C 92.34417,638.78724 17.495935,759.00067 64.025725,847.9415 Z"
         sodipodi:nodetypes="sssscsss"
         inkscape:label="Blue triangle" /><path
         id="path3"
         style="fill:url(#linearGradient10);fill-opacity:1;stroke-width:1.09492;stroke-dashoffset:33.6377"
         d="m 1251.3667,1009.4708 -321.99181,449.7521 c -26.02114,36.3459 -93.88362,39.4103 -117.75051,-18.7803 C 694.23991,1154.2444 690.40129,846.52769 676.94341,540.21273 c 5.03751,85.34654 50.20899,204.06074 151.92031,219.36162 l 330.96328,49.78826 c 107.5404,16.17778 136.4868,137.3269 91.5397,200.10819 z"
         sodipodi:nodetypes="ssscsss"
         inkscape:label="Purple triangle" /><path
         id="path4"
         style="fill:#2563eb;stroke-width:1.40162;stroke-dashoffset:33.6377;fill-opacity:1"
         d="m 612.88015,465.16493 c 0,0 0.58413,16.87912 2.92298,26.25604 5.45373,21.8654 21.01147,37.74799 23.08786,39.79528 l -0.003,0.40841 c 0,0 0.1682,-0.16847 0.20702,-0.20605 0.0388,0.0376 0.20704,0.20605 0.20704,0.20605 l -0.003,-0.40841 c 2.07639,-2.04729 17.63413,-17.92988 23.08786,-39.79528 2.33886,-9.37692 2.92299,-26.25604 2.92299,-26.25604 h -26.11162 z"
         sodipodi:nodetypes="cscccccsccc"
         inkscape:label="Flame" /><path
         id="path5"
         style="display:inline;fill:url(#linearGradient11);fill-opacity:1;stroke-width:1.38224;stroke-dashoffset:33.6377"
         inkscape:label="Spaceship"
         d="m 638.80472,152.80527 c -65.43643,52.61851 -78.61123,138.53021 -72.33585,213.71841 0.79714,9.5509 2.33815,20.39321 2.33815,20.39321 0,0 -25.02947,13.8212 -31.64428,34.09225 -6.61475,20.27104 16.50326,71.33547 16.50326,71.33547 0,0 36.57866,-39.82783 40.37909,-39.86935 2.95437,-0.0324 37.56468,0.0327 44.75963,0.0456 7.19484,-0.0129 41.80523,-0.0777 44.75971,-0.0456 3.80043,0.0414 40.37909,39.86935 40.37909,39.86935 0,0 23.11797,-51.06443 16.50327,-71.33547 -6.61482,-20.27105 -31.64429,-34.09225 -31.64429,-34.09225 0,0 1.54101,-10.84231 2.33816,-20.39321 6.27537,-75.1882 -6.89963,-161.0999 -72.33594,-213.71841 z m 0,101.35211 a 24.25281,24.25281 0 0 1 24.25281,24.25282 24.25281,24.25281 0 0 1 -24.25281,24.25279 24.25281,24.25281 0 0 1 -24.25282,-24.25279 24.25281,24.25281 0 0 1 24.25282,-24.25282 z" /></g><rect
       style="display:inline;fill:none;fill-opacity:0.206186;stroke:none;stroke-width:5.0654;stroke-dasharray:none;stroke-dashoffset:33.6377;stroke-opacity:0"
       id="rect11"
       width="1164.9235"
       height="1159.5389"
       x="2004.1118"
       y="-227.99213"
       inkscape:label="Big square"
       inkscape:export-filename="Aerovialogo.svg"
       inkscape:export-xdpi="96"
       inkscape:export-ydpi="96" /></g><path
     style="display:none;fill:none;fill-opacity:0.206186;stroke:#ed0000;stroke-width:3.283;stroke-dasharray:none;stroke-dashoffset:33.6377;stroke-opacity:1"
     d="M 1045.9497,-477.03799 -144.64144,379.91809"
     id="path14"
     inkscape:label="Division line" /></svg>
