<svg width="20" height="20" viewBox="0 0 20 20" fill="none" xmlns="http://www.w3.org/2000/svg">
  <path fill-rule="evenodd" clip-rule="evenodd"
    d="M10 12C9.52553 12 9.02728 11.9943 8.5157 11.9824C8.25585 11.9763 8.04506 11.7705 8.03398 11.5108C8.01175 10.9899 8 10.4826 8 10C8 9.52092 8.00579 9.01758 8.01799 8.50076C8.02422 8.23663 8.23663 8.02422 8.50077 8.01799C9.01758 8.00579 9.52092 8 10 8C10.4826 8 10.9899 8.01175 11.5108 8.03397C11.7704 8.04505 11.9763 8.25584 11.9824 8.51569C11.9943 9.02728 12 9.52553 12 10C12 10.4781 11.9885 10.9803 11.9667 11.496C11.9558 11.7515 11.7515 11.9558 11.496 11.9667C10.9803 11.9885 10.4781 12 10 12Z"
    fill="#22C358" />
  <path fill-rule="evenodd" clip-rule="evenodd"
    d="M4.23903 12.3539C4.17724 12.0338 4.44618 11.7529 4.77085 11.7815C5.69556 11.8628 6.65757 11.9193 7.59661 11.9544C7.85635 11.9642 8.06647 12.1696 8.083 12.429C8.14306 13.3717 8.23358 14.3371 8.34753 15.2641C8.38743 15.5887 8.11392 15.8675 7.79098 15.8157C6.94138 15.6796 6.08789 15.4722 5.26453 15.2075C5.12242 15.1618 5.00935 15.0533 4.9579 14.9132C4.65258 14.0818 4.40567 13.2168 4.23903 12.3539Z"
    fill="#22C358" />
  <path fill-rule="evenodd" clip-rule="evenodd"
    d="M15.0856 14.7932C15.0367 14.9295 14.9294 15.0367 14.7932 15.0857C13.9557 15.3864 13.0861 15.6272 12.2204 15.7861C11.8953 15.8458 11.6155 15.5658 11.6557 15.2377C11.7695 14.3073 11.8597 13.339 11.9192 12.3942C11.9352 12.139 12.1389 11.9353 12.3942 11.9192C13.339 11.8597 14.3073 11.7695 15.2376 11.6557C15.5658 11.6156 15.8457 11.8953 15.7861 12.2205C15.6272 13.0862 15.3863 13.9557 15.0856 14.7932Z"
    fill="#22C358" />
  <path fill-rule="evenodd" clip-rule="evenodd"
    d="M12.429 8.08299C12.1696 8.06646 11.9642 7.85634 11.9545 7.5966C11.9193 6.65757 11.8628 5.69555 11.7815 4.77085C11.753 4.44617 12.0339 4.17723 12.3539 4.23903C13.2168 4.40566 14.0818 4.65258 14.9132 4.95789C15.0533 5.00935 15.1619 5.12242 15.2076 5.26452C15.4723 6.08789 15.6797 6.94137 15.8158 7.79097C15.8675 8.11391 15.5887 8.38742 15.2641 8.34752C14.3371 8.23357 13.3717 8.14305 12.429 8.08299Z"
    fill="#22C358" />
  <path fill-rule="evenodd" clip-rule="evenodd"
    d="M8.04691 7.56089C8.03689 7.82491 7.82492 8.03688 7.5609 8.0469C6.62321 8.08251 5.66339 8.13943 4.74136 8.22112C4.4204 8.24955 4.15257 7.97524 4.20623 7.65753C4.34944 6.80955 4.56286 5.95948 4.83267 5.14109C4.88077 4.99516 4.99517 4.88077 5.14109 4.83266C5.95949 4.56285 6.80956 4.34943 7.65754 4.20622C7.97525 4.15256 8.24957 4.42039 8.22113 4.74135C8.13944 5.66338 8.08252 6.6232 8.04691 7.56089Z"
    fill="#22C358" />
  <path fill-rule="evenodd" clip-rule="evenodd"
    d="M11.6493 3.49284C11.6883 3.81643 11.4073 4.08496 11.0828 4.05369C10.7173 4.01847 10.3555 4 9.99996 4C9.64163 4 9.27679 4.01609 8.90832 4.04709C8.58724 4.0741 8.31272 3.80681 8.35132 3.48692C8.44192 2.73599 8.55201 2.03351 8.68376 1.41748C8.7272 1.21438 8.89614 1.06245 9.10292 1.043C9.40528 1.01455 9.70483 1 9.99996 1C10.2926 1 10.5895 1.01251 10.8892 1.03722C11.0987 1.05449 11.2711 1.20707 11.3151 1.41259C11.4477 2.03141 11.5584 2.73769 11.6493 3.49284Z"
    fill="#22C358" />
  <path fill-rule="evenodd" clip-rule="evenodd"
    d="M9.33742 18.9763C9.12752 18.9615 8.95401 18.8097 8.90729 18.6046C8.76774 17.9917 8.63844 17.2923 8.52375 16.5441C8.47419 16.2208 8.74782 15.9423 9.07403 15.9659C9.38623 15.9884 9.69549 16 10.0001 16C10.3019 16 10.6084 15.9867 10.9177 15.9611C11.2472 15.9339 11.527 16.2137 11.4769 16.5404C11.362 17.291 11.2323 17.9925 11.0923 18.6069C11.0451 18.8142 10.8685 18.9665 10.6564 18.9796C10.4356 18.9931 10.2167 19 10.0001 19C9.78138 19 9.56029 18.992 9.33742 18.9763Z"
    fill="#22C358" />
  <path fill-rule="evenodd" clip-rule="evenodd"
    d="M14.4986 18.1094C14.0627 18.2806 13.6883 17.7809 13.9168 17.3722C14.2891 16.7059 14.6313 15.9793 14.926 15.2203C14.9785 15.0853 15.0853 14.9785 15.2203 14.9261C15.9792 14.6313 16.7058 14.2892 17.3721 13.9168C17.7809 13.6883 18.2806 14.0627 18.1094 14.4986C17.7952 15.2989 17.4016 16.0741 16.9351 16.7936C16.8984 16.8502 16.8502 16.8984 16.7936 16.9351C16.0741 17.4017 15.2988 17.7952 14.4986 18.1094Z"
    fill="#22C358" />
  <path fill-rule="evenodd" clip-rule="evenodd"
    d="M6.01842 17.2552C6.24621 17.671 5.85611 18.1702 5.42111 17.9816C4.57232 17.6136 3.753 17.1551 2.99989 16.6209C2.94626 16.5828 2.901 16.5342 2.86693 16.478C2.53492 15.9299 2.24399 15.3533 1.99676 14.761C1.81623 14.3284 2.3106 13.9409 2.72645 14.1572C3.37678 14.4953 4.08229 14.7988 4.81764 15.0572C4.95846 15.1067 5.07105 15.2148 5.1262 15.3535C5.39136 16.0203 5.69272 16.6606 6.01842 17.2552Z"
    fill="#22C358" />
  <path fill-rule="evenodd" clip-rule="evenodd"
    d="M4 10C4 10.3555 4.01847 10.7174 4.05369 11.0829C4.08496 11.4073 3.81643 11.6884 3.49284 11.6494C2.73769 11.5584 2.0314 11.4477 1.41258 11.3152C1.20706 11.2711 1.05447 11.0987 1.03721 10.8892C1.01251 10.5895 1 10.2926 1 10C1 9.70486 1.01455 9.40531 1.043 9.10295C1.06245 8.89617 1.21438 8.72723 1.41748 8.68379C2.03351 8.55203 2.73599 8.44195 3.48692 8.35134C3.80681 8.31274 4.0741 8.58727 4.04709 8.90835C4.01609 9.27682 4 9.64166 4 10Z"
    fill="#22C358" />
  <path fill-rule="evenodd" clip-rule="evenodd"
    d="M18.9795 10.6563C18.9665 10.8685 18.8141 11.045 18.6069 11.0922C17.9925 11.2322 17.291 11.3619 16.5404 11.4769C16.2136 11.5269 15.9338 11.2471 15.9611 10.9176C15.9866 10.6083 16 10.3018 16 10C16 9.69544 15.9883 9.38617 15.9658 9.07397C15.9423 8.74776 16.2208 8.47413 16.544 8.52369C17.2923 8.63838 17.9917 8.76769 18.6045 8.90724C18.8097 8.95395 18.9615 9.12747 18.9763 9.33736C18.992 9.56023 19 9.78133 19 10C19 10.2166 18.9931 10.4356 18.9795 10.6563Z"
    fill="#22C358" />
  <path fill-rule="evenodd" clip-rule="evenodd"
    d="M14.1572 2.7265C13.941 2.31066 14.3285 1.81629 14.761 1.99681C15.3534 2.24405 15.9299 2.53498 16.478 2.867C16.5343 2.90107 16.5829 2.94632 16.6209 2.99996C17.1551 3.75306 17.6137 4.57239 17.9817 5.42117C18.1702 5.85617 17.671 6.24627 17.2552 6.01848C16.6607 5.69278 16.0204 5.39142 15.3535 5.12627C15.2148 5.07111 15.1068 4.95852 15.0573 4.8177C14.7988 4.08235 14.4953 3.37684 14.1572 2.7265Z"
    fill="#22C358" />
  <path fill-rule="evenodd" clip-rule="evenodd"
    d="M4.99144 4.68094C4.93928 4.82547 4.82541 4.93933 4.68089 4.99149C4.04263 5.22185 3.42828 5.48598 2.85467 5.777C2.4316 5.99164 1.93849 5.58762 2.13644 5.15649C2.43144 4.51399 2.77827 3.89087 3.17025 3.30344C3.20543 3.25071 3.25068 3.20546 3.30341 3.17028C3.89083 2.77831 4.51395 2.43148 5.15644 2.13649C5.58757 1.93854 5.99159 2.43165 5.77695 2.85472C5.48593 3.42833 5.22179 4.04268 4.99144 4.68094Z"
    fill="#22C358" />
</svg>