<svg xmlns="http://www.w3.org/2000/svg" viewBox="0 0 339 336">
    <path fill="#0587B0" fill-rule="evenodd" d="M252.51 183.74c-24.17 7.58-49.11 1.51-49.04-30.8.05-49.25 115.72-90.56 131.8-133.6 3.98-10.77 4.2-19.58-.92-19.33-3.7.24-.8 5.58-8.93 13.72-47.9 47.93-128.21 47.85-189.84 75.45-40.4 18.16-158.83 73.87-131.54 198.15 1.26 5.91 4.8 25.67 8.4 25.67 4.22 0 4.18-11.75 4.06-25.99-.9-74.01 86.76-94.68 115.25-143.04 3.42-5.75 9.31-13.86 10.7-10.1.68 1.84.25 4.51-.9 9.66-8.92 39.73-50.5 65.23-38.72 93.64 15.27 36.85 59.33 9.38 72.85-14.33 3.64-6.51 5.65-10.68 8.07-9.84 1.85.62 1.78 8.1.62 14.86-7.2 42.76-17.07 66.77-48.34 91.1-10.02 7.8-25.76 9.42-23.7 15.4.52 1.57 7.32 1.4 12.73.85 83.32-5.34 153.05-103.6 171.49-167.81 1.95-4.49 2.52-8.74.5-10.33-2.53-1.94-6.18 2.51-9.92 5.82-9.5 8.35-22.57 17.1-34.62 20.85" />
</svg>
